<svg width="227" height="58" viewBox="0 0 227 58" fill="none" xmlns="http://www.w3.org/2000/svg">
<path d="M0.000390649 11.2641V8.38406C2.56039 7.65873 4.69372 6.57073 6.40039 5.12006C8.14972 3.62673 9.45106 1.92006 10.3044 6.10352e-05H13.5684V7.74406H20.9284V11.2641H13.5684V30.9121C13.5684 33.5574 13.8457 35.4347 14.4004 36.5441C14.9977 37.6534 15.9791 38.2081 17.3444 38.2081C19.0084 38.2081 20.2671 37.4401 21.1204 35.9041L22.4644 37.7601C21.2697 40.7894 18.4537 42.3041 14.0164 42.3041C11.0724 42.3041 8.76839 41.6214 7.10439 40.2561C5.48306 38.8907 4.67239 36.9707 4.67239 34.4961V11.2641H0.000390649ZM38.0699 7.10406C40.6299 7.10406 43.0406 7.55206 45.3019 8.44806C47.6059 9.30139 49.6112 10.4961 51.3179 12.0321C53.0672 13.5681 54.4326 15.4027 55.4139 17.5361C56.4379 19.6267 56.9499 21.9307 56.9499 24.4481C56.9499 27.0507 56.4379 29.4401 55.4139 31.6161C54.4326 33.7921 53.0672 35.6694 51.3179 37.2481C49.6112 38.8267 47.6059 40.0641 45.3019 40.9601C43.0406 41.8561 40.6299 42.3041 38.0699 42.3041C35.5526 42.3041 33.1632 41.8774 30.9019 41.0241C28.6406 40.1281 26.6566 38.8907 24.9499 37.3121C23.2432 35.7334 21.8992 33.8561 20.9179 31.6801C19.9366 29.4614 19.4459 27.0507 19.4459 24.4481C19.4459 21.9307 19.9366 19.6054 20.9179 17.4721C21.8992 15.3387 23.2432 13.5041 24.9499 11.9681C26.6566 10.4321 28.6406 9.23739 30.9019 8.38406C33.1632 7.53073 35.5526 7.10406 38.0699 7.10406ZM38.0699 10.8161C36.7899 10.8161 35.6166 11.1574 34.5499 11.8401C33.4832 12.4801 32.5659 13.3974 31.7979 14.5921C31.0726 15.7867 30.4966 17.2374 30.0699 18.9441C29.6859 20.6081 29.4939 22.4641 29.4939 24.5121C29.4939 26.6454 29.6859 28.5654 30.0699 30.2721C30.4966 31.9787 31.0726 33.4294 31.7979 34.6241C32.5659 35.8187 33.4619 36.7574 34.4859 37.4401C35.5526 38.0801 36.7472 38.4001 38.0699 38.4001C39.3926 38.4001 40.5872 38.0801 41.6539 37.4401C42.7632 36.7574 43.7019 35.8187 44.4699 34.6241C45.2379 33.3867 45.8352 31.9147 46.2619 30.2081C46.6886 28.5014 46.9019 26.6027 46.9019 24.5121C46.9019 22.4641 46.6886 20.6081 46.2619 18.9441C45.8352 17.2801 45.2379 15.8507 44.4699 14.6561C43.7019 13.4187 42.7632 12.4801 41.6539 11.8401C40.5872 11.1574 39.3926 10.8161 38.0699 10.8161ZM67.5199 31.7441C67.5199 33.4081 67.5839 34.7307 67.7119 35.7121C67.8826 36.6507 68.2026 37.3761 68.6719 37.8881C69.1412 38.4001 69.8239 38.7414 70.7199 38.9121C71.6159 39.0401 72.8106 39.1041 74.3039 39.1041V41.6641H52.9279V39.1041C54.2079 39.0187 55.2319 38.8907 55.9999 38.7201C56.7679 38.5494 57.3439 38.2081 57.7279 37.6961C58.1119 37.1841 58.3466 36.4587 58.4319 35.5201C58.5599 34.5387 58.6239 33.2374 58.6239 31.6161V23.8081C58.6239 21.1627 58.5599 19.0507 58.4319 17.4721C58.3039 15.8934 58.0266 14.6774 57.5999 13.8241C57.1732 12.9707 56.5546 12.4161 55.7439 12.1601C54.9759 11.8614 53.9519 11.7121 52.6719 11.7121V9.47206L65.4719 7.10406L66.4959 14.4641H66.7519C67.9039 12.2027 69.4186 10.4107 71.2959 9.08806C73.1732 7.76539 75.1572 7.10406 77.2479 7.10406C78.8692 7.10406 80.1919 7.50939 81.2159 8.32006C82.2399 9.13073 82.7519 10.1547 82.7519 11.3921C82.7519 12.7574 82.3466 13.9094 81.5359 14.8481C80.7679 15.7867 79.7012 16.2561 78.3359 16.2561C77.6959 16.2561 77.1199 16.1281 76.6079 15.8721C76.0959 15.6161 75.6266 15.3387 75.1999 15.0401C74.8159 14.6987 74.4106 14.4001 73.9839 14.1441C73.5999 13.8454 73.1946 13.6961 72.7679 13.6961C71.9572 13.6961 71.1892 14.2294 70.4639 15.2961C69.7386 16.3627 69.1412 17.7921 68.6719 19.5841C68.3306 20.8641 68.0532 22.3147 67.8399 23.9361C67.6266 25.5147 67.5199 27.0934 67.5199 28.6721V31.7441ZM98.4424 7.10406C101.002 7.10406 103.413 7.55206 105.674 8.44806C107.978 9.30139 109.984 10.4961 111.69 12.0321C113.44 13.5681 114.805 15.4027 115.786 17.5361C116.81 19.6267 117.322 21.9307 117.322 24.4481C117.322 27.0507 116.81 29.4401 115.786 31.6161C114.805 33.7921 113.44 35.6694 111.69 37.2481C109.984 38.8267 107.978 40.0641 105.674 40.9601C103.413 41.8561 101.002 42.3041 98.4424 42.3041C95.9251 42.3041 93.5357 41.8774 91.2744 41.0241C89.0131 40.1281 87.0291 38.8907 85.3224 37.3121C83.6157 35.7334 82.2717 33.8561 81.2904 31.6801C80.3091 29.4614 79.8184 27.0507 79.8184 24.4481C79.8184 21.9307 80.3091 19.6054 81.2904 17.4721C82.2717 15.3387 83.6157 13.5041 85.3224 11.9681C87.0291 10.4321 89.0131 9.23739 91.2744 8.38406C93.5357 7.53073 95.9251 7.10406 98.4424 7.10406ZM98.4424 10.8161C97.1624 10.8161 95.9891 11.1574 94.9224 11.8401C93.8557 12.4801 92.9384 13.3974 92.1704 14.5921C91.4451 15.7867 90.8691 17.2374 90.4424 18.9441C90.0584 20.6081 89.8664 22.4641 89.8664 24.5121C89.8664 26.6454 90.0584 28.5654 90.4424 30.2721C90.8691 31.9787 91.4451 33.4294 92.1704 34.6241C92.9384 35.8187 93.8344 36.7574 94.8584 37.4401C95.9251 38.0801 97.1197 38.4001 98.4424 38.4001C99.7651 38.4001 100.96 38.0801 102.026 37.4401C103.136 36.7574 104.074 35.8187 104.842 34.6241C105.61 33.3867 106.208 31.9147 106.634 30.2081C107.061 28.5014 107.274 26.6027 107.274 24.5121C107.274 22.4641 107.061 20.6081 106.634 18.9441C106.208 17.2801 105.61 15.8507 104.842 14.6561C104.074 13.4187 103.136 12.4801 102.026 11.8401C100.96 11.1574 99.7651 10.8161 98.4424 10.8161ZM126.612 11.9041H126.868C129.684 8.70406 133.354 7.10406 137.876 7.10406C140.351 7.10406 142.612 7.55206 144.66 8.44806C146.751 9.30139 148.543 10.5174 150.036 12.0961C151.572 13.6321 152.746 15.4881 153.556 17.6641C154.41 19.7974 154.836 22.1441 154.836 24.7041C154.836 27.2641 154.41 29.6107 153.556 31.7441C152.746 33.8774 151.594 35.7334 150.1 37.3121C148.607 38.8907 146.815 40.1281 144.724 41.0241C142.676 41.8774 140.436 42.3041 138.004 42.3041C133.866 42.3041 130.708 40.8961 128.532 38.0801H128.276V46.9761C128.276 48.6827 128.362 50.0481 128.532 51.0721C128.703 52.0961 129.066 52.8854 129.62 53.4401C130.175 53.9947 130.943 54.3787 131.924 54.5921C132.948 54.8054 134.292 54.9334 135.956 54.9761V57.6641H113.876V54.9761C115.028 54.9334 115.967 54.8054 116.692 54.5921C117.418 54.3787 117.972 53.9947 118.356 53.4401C118.783 52.8854 119.06 52.1174 119.188 51.1361C119.359 50.1974 119.444 48.9601 119.444 47.4241V23.6161C119.444 21.6534 119.402 19.7974 119.316 18.0481C119.231 16.2561 119.124 14.9974 118.996 14.2721C118.783 13.2907 118.292 12.6081 117.524 12.2241C116.799 11.8401 115.54 11.6481 113.748 11.6481V9.15206L126.612 7.36006V11.9041ZM137.492 10.7521C136.127 10.7521 134.826 11.0507 133.588 11.6481C132.351 12.2454 131.37 13.0347 130.644 14.0161C129.919 14.9974 129.364 16.2347 128.98 17.7281C128.596 19.1787 128.404 20.7574 128.404 22.4641V26.8161C128.404 29.8454 129.151 32.4267 130.644 34.5601C132.266 36.9067 134.548 38.0801 137.492 38.0801C140.095 38.0801 142.015 37.0134 143.252 34.8801C144.532 32.7041 145.172 29.3547 145.172 24.8321C145.172 15.4454 142.612 10.7521 137.492 10.7521ZM174.437 7.10406C176.997 7.10406 179.408 7.55206 181.669 8.44806C183.973 9.30139 185.979 10.4961 187.685 12.0321C189.435 13.5681 190.8 15.4027 191.781 17.5361C192.805 19.6267 193.317 21.9307 193.317 24.4481C193.317 27.0507 192.805 29.4401 191.781 31.6161C190.8 33.7921 189.435 35.6694 187.685 37.2481C185.979 38.8267 183.973 40.0641 181.669 40.9601C179.408 41.8561 176.997 42.3041 174.437 42.3041C171.92 42.3041 169.531 41.8774 167.269 41.0241C165.008 40.1281 163.024 38.8907 161.317 37.3121C159.611 35.7334 158.267 33.8561 157.285 31.6801C156.304 29.4614 155.813 27.0507 155.813 24.4481C155.813 21.9307 156.304 19.6054 157.285 17.4721C158.267 15.3387 159.611 13.5041 161.317 11.9681C163.024 10.4321 165.008 9.23739 167.269 8.38406C169.531 7.53073 171.92 7.10406 174.437 7.10406ZM174.437 10.8161C173.157 10.8161 171.984 11.1574 170.917 11.8401C169.851 12.4801 168.933 13.3974 168.165 14.5921C167.44 15.7867 166.864 17.2374 166.437 18.9441C166.053 20.6081 165.861 22.4641 165.861 24.5121C165.861 26.6454 166.053 28.5654 166.437 30.2721C166.864 31.9787 167.44 33.4294 168.165 34.6241C168.933 35.8187 169.829 36.7574 170.853 37.4401C171.92 38.0801 173.115 38.4001 174.437 38.4001C175.76 38.4001 176.955 38.0801 178.021 37.4401C179.131 36.7574 180.069 35.8187 180.837 34.6241C181.605 33.3867 182.203 31.9147 182.629 30.2081C183.056 28.5014 183.269 26.6027 183.269 24.5121C183.269 22.4641 183.056 20.6081 182.629 18.9441C182.203 17.2801 181.605 15.8507 180.837 14.6561C180.069 13.4187 179.131 12.4801 178.021 11.8401C176.955 11.1574 175.76 10.8161 174.437 10.8161ZM193.494 16.0001C193.025 14.7627 192.577 13.7814 192.15 13.0561C191.724 12.2881 191.276 11.7121 190.806 11.3281C190.38 10.9014 189.889 10.6241 189.334 10.4961C188.822 10.3681 188.204 10.3041 187.478 10.3041V7.74406H206.614V10.3041C205.548 10.3041 204.694 10.3467 204.054 10.4321C203.457 10.5174 202.988 10.6454 202.646 10.8161C202.348 10.9867 202.156 11.2214 202.07 11.5201C201.985 11.7761 201.942 12.0747 201.942 12.4161C201.942 12.9707 202.049 13.6107 202.262 14.3361C202.476 15.0614 202.732 15.7867 203.03 16.5121L209.11 33.2801H209.366L216.214 16.5761C216.513 15.8507 216.748 15.2107 216.918 14.6561C217.089 14.0587 217.174 13.5254 217.174 13.0561C217.174 12.1174 216.854 11.4347 216.214 11.0081C215.574 10.5814 214.444 10.3467 212.822 10.3041V7.74406H226.966V10.3041C225.814 10.3041 224.812 10.6027 223.958 11.2001C223.148 11.7974 222.294 13.1201 221.398 15.1681L209.43 42.3041H203.606L193.494 16.0001Z" fill="black"/>
</svg>
